# xmcd
#
# Track frame offsets:
# 182
# 19472
# 37692
# 51217
# 63482
# 81822
# 100720
# 116275
# 142157
# 157255
# 169630
# 191622
# 208065
# 220952
#
# Disc length: 3136 seconds
#
#
# Revision: 0
# Processed by: cddbd v1.5.1PL0 Copyright (c) Steve Scherf et al.
# Submitted via: FreeRIP 2.941 
#
DISCID=c60c3e0e
DTITLE=Ivan Mladek - Washboard Banjo
DYEAR=1994
DGENRE=Bluegrass
TTITLE0=Hospoda - Most pres reku Kwai - pocho Americkych namorniku
TTITLE1=Blueberry Hill
TTITLE2=Vasku neskakej do vody
TTITLE3=Ragtime
TTITLE4=Onemnele rybicky
TTITLE5=I love Banjo
TTITLE6=On The Sunny Side
TTITLE7=Kdyz ti reknu, ze jsi nadherna
TTITLE8=Swany River
TTITLE9=The Entertainment
TTITLE10=Nemohu ti dat vic, nez mou lasku
TTITLE11=Bourbon Street parade  Alabama Jubilee
TTITLE12=Radetzky marsch
TTITLE13=Vecerni rejdy
EXTD=
EXTT0=
EXTT1=
EXTT2=
EXTT3=
EXTT4=
EXTT5=
EXTT6=
EXTT7=
EXTT8=
EXTT9=
EXTT10=
EXTT11=
EXTT12=
EXTT13=
PLAYORDER=
